<svg width="15" height="10" viewBox="0 0 15 10" fill="none" xmlns="http://www.w3.org/2000/svg">
<path d="M0.5625 9V0.269531H6.44531V1.79297H2.40234V3.84375H6.14062V5.33789H2.40234V7.47656H6.45703V9H0.5625ZM10.7578 9.12305C10.0547 9.12305 9.44141 9.01562 8.91797 8.80078C8.39844 8.58594 7.99219 8.26562 7.69922 7.83984C7.41016 7.41406 7.25781 6.88672 7.24219 6.25781H9.02344C9.04688 6.54688 9.13281 6.79102 9.28125 6.99023C9.42969 7.18555 9.62891 7.33203 9.87891 7.42969C10.1289 7.52734 10.416 7.57617 10.7402 7.57617C11.0527 7.57617 11.3242 7.53125 11.5547 7.44141C11.7891 7.35156 11.9688 7.22656 12.0938 7.06641C12.2227 6.90234 12.2871 6.71289 12.2871 6.49805C12.2871 6.30273 12.2285 6.13867 12.1113 6.00586C11.998 5.87305 11.8301 5.75977 11.6074 5.66602C11.3887 5.57227 11.1211 5.48828 10.8047 5.41406L9.84961 5.17969C9.11523 5.00391 8.53516 4.72461 8.10938 4.3418C7.68359 3.95508 7.4707 3.43945 7.4707 2.79492C7.4707 2.26758 7.61328 1.80664 7.89844 1.41211C8.1875 1.01367 8.58008 0.705078 9.07617 0.486328C9.57617 0.263672 10.1445 0.152344 10.7812 0.152344C11.4297 0.152344 11.9941 0.263672 12.4746 0.486328C12.959 0.708984 13.3359 1.01758 13.6055 1.41211C13.8789 1.80664 14.0195 2.26172 14.0273 2.77734H12.252C12.2207 2.4375 12.0742 2.17188 11.8125 1.98047C11.5547 1.78906 11.2051 1.69336 10.7637 1.69336C10.4668 1.69336 10.2129 1.73633 10.002 1.82227C9.79492 1.9043 9.63672 2.01953 9.52734 2.16797C9.41797 2.31641 9.36328 2.48633 9.36328 2.67773C9.36328 2.88086 9.42578 3.05273 9.55078 3.19336C9.67578 3.33008 9.8418 3.44336 10.0488 3.5332C10.2598 3.61914 10.4902 3.69141 10.7402 3.75L11.5195 3.94336C11.8984 4.0293 12.248 4.14453 12.5684 4.28906C12.8887 4.42969 13.166 4.60352 13.4004 4.81055C13.6387 5.01758 13.8223 5.26172 13.9512 5.54297C14.0801 5.82031 14.1445 6.14062 14.1445 6.50391C14.1445 7.03906 14.0098 7.50391 13.7402 7.89844C13.4746 8.28906 13.0898 8.5918 12.5859 8.80664C12.082 9.01758 11.4727 9.12305 10.7578 9.12305Z" fill="black"/>
</svg>
